<svg width="1200" height="630" viewBox="0 0 1200 630" xmlns="http://www.w3.org/2000/svg">
  <defs>
    <linearGradient id="bgGradient" x1="0%" y1="0%" x2="100%" y2="100%">
      <stop offset="0%" style="stop-color:#667eea;stop-opacity:1" />
      <stop offset="100%" style="stop-color:#764ba2;stop-opacity:1" />
    </linearGradient>
    <linearGradient id="glitchGradient" x1="0%" y1="0%" x2="100%" y2="0%">
      <stop offset="0%" style="stop-color:#ff71ce;stop-opacity:1" />
      <stop offset="50%" style="stop-color:#01cdfe;stop-opacity:1" />
      <stop offset="100%" style="stop-color:#05ffa1;stop-opacity:1" />
    </linearGradient>
    <filter id="glitch">
      <feColorMatrix type="matrix" values="1 0 0 0 0  0 0 0 0 0  0 0 1 0 0  0 0 0 1 0"/>
      <feOffset dx="2" dy="0" result="r"/>
      <feColorMatrix type="matrix" values="0 0 0 0 0  0 1 0 0 0  0 0 0 0 0  0 0 0 1 0"/>
      <feOffset dx="-2" dy="0" result="g"/>
      <feColorMatrix type="matrix" values="0 0 0 0 0  0 0 0 0 0  0 0 1 0 0  0 0 0 1 0"/>
      <feOffset dx="0" dy="0" result="b"/>
      <feBlend mode="screen" in="r" in2="g" result="rg"/>
      <feBlend mode="screen" in="rg" in2="b"/>
    </filter>
  </defs>
  
  <!-- Background -->
  <rect width="1200" height="630" fill="url(#bgGradient)"/>
  
  <!-- Grid pattern -->
  <defs>
    <pattern id="grid" width="40" height="40" patternUnits="userSpaceOnUse">
      <path d="M 40 0 L 0 0 0 40" fill="none" stroke="rgba(255,255,255,0.1)" stroke-width="1"/>
    </pattern>
  </defs>
  <rect width="1200" height="630" fill="url(#grid)"/>
  
  <!-- Main G letter -->
  <g transform="translate(500, 150)">
    <path d="M 0 165 Q 0 0 165 0 Q 330 0 330 165 L 330 247.5 L 247.5 247.5 L 247.5 165 Q 247.5 82.5 165 82.5 Q 82.5 82.5 82.5 165 Q 82.5 247.5 165 247.5 L 206.25 247.5 L 206.25 206.25 L 165 206.25 L 165 330 Q 0 330 0 165 Z" 
          fill="url(#glitchGradient)" 
          filter="url(#glitch)"
          stroke="rgba(255,255,255,0.3)" 
          stroke-width="2"/>
  </g>
  
  <!-- Glitch effect lines -->
  <g opacity="0.6">
    <rect x="0" y="120" width="1200" height="2" fill="#ff71ce"/>
    <rect x="0" y="280" width="1200" height="1" fill="#01cdfe"/>
    <rect x="0" y="420" width="1200" height="3" fill="#05ffa1"/>
    <rect x="0" y="380" width="600" height="1" fill="#ff71ce"/>
    <rect x="600" y="200" width="600" height="2" fill="#01cdfe"/>
  </g>
  
  <!-- Site name -->
  <text x="600" y="500" font-family="Arial, sans-serif" font-size="36" font-weight="bold" text-anchor="middle" fill="white" opacity="0.9">
    GLITCH TEXT GENERATOR
  </text>
  
  <!-- Tagline -->
  <text x="600" y="540" font-family="Arial, sans-serif" font-size="20" text-anchor="middle" fill="rgba(255,255,255,0.8)">
    Create Unique Text Effects Instantly
  </text>
  
  <!-- Corner accent -->
  <polygon points="0,0 80,0 0,80" fill="rgba(255,113,206,0.3)"/>
  <polygon points="1200,630 1120,630 1200,550" fill="rgba(5,255,161,0.3)"/>
</svg> 